<?xml version="1.0" standalone="no"?>
<!DOCTYPE svg PUBLIC "-//W3C//DTD SVG 20010904//EN"
 "http://www.w3.org/TR/2001/REC-SVG-20010904/DTD/svg10.dtd">
<svg version="1.0" xmlns="http://www.w3.org/2000/svg"
 width="700.000000pt" height="700.000000pt" viewBox="0 0 700.000000 700.000000"
 preserveAspectRatio="xMidYMid meet">
<metadata>
Created by potrace 1.11, written by Peter Selinger 2001-2013
</metadata>
<g transform="translate(0.000000,700.000000) scale(0.100000,-0.100000)"
fill="#000000" stroke="none">
<path d="M0 3500 l0 -3500 3500 0 3500 0 0 3500 0 3500 -3500 0 -3500 0 0
-3500z m2048 1293 c23 -98 69 -293 102 -433 70 -289 65 -269 80 -335 6 -27 29
-126 51 -220 23 -93 43 -178 45 -187 6 -28 9 -41 64 -273 29 -121 53 -227 55
-235 2 -8 19 -81 39 -161 19 -80 37 -157 40 -170 2 -13 11 -51 19 -84 9 -33
19 -75 22 -94 3 -19 8 -37 10 -41 2 -4 7 -21 10 -38 3 -18 21 -96 40 -175 20
-78 37 -151 39 -162 3 -11 18 -79 35 -152 17 -72 31 -133 31 -135 0 -2 -14 -4
-31 -4 -34 1 -43 13 -54 71 -5 22 -9 45 -11 50 -11 45 -169 693 -230 945 -42
173 -110 450 -150 615 -195 803 -334 1377 -334 1385 0 6 19 10 43 10 l44 0 41
-177z m1478 112 c14 -70 13 -61 20 -105 3 -19 19 -105 34 -190 16 -85 32 -167
34 -183 6 -36 25 -136 31 -167 4 -22 13 -66 31 -165 3 -16 21 -115 40 -220 19
-104 38 -210 44 -235 8 -42 35 -185 44 -240 2 -14 14 -77 26 -140 12 -63 24
-126 26 -140 3 -14 15 -83 29 -155 13 -71 26 -141 29 -155 6 -39 95 -522 101
-550 3 -14 9 -50 15 -80 5 -30 18 -104 30 -164 11 -60 20 -113 20 -118 0 -8
-68 -3 -76 5 -3 3 -6 22 -18 97 -3 19 -8 46 -11 60 -15 78 -25 128 -30 155
-11 63 -50 278 -60 325 -3 14 -8 39 -10 55 -3 17 -10 55 -16 85 -15 82 -19
100 -30 160 -5 30 -19 102 -30 160 -11 58 -22 119 -25 135 -5 32 -41 224 -49
265 -4 22 -16 86 -29 162 -2 13 -12 64 -21 113 -10 50 -19 101 -21 115 -3 14
-16 81 -29 150 -13 69 -27 141 -30 160 -9 47 -33 178 -40 215 -8 43 -55 291
-65 350 -5 28 -11 59 -13 70 -3 11 -12 64 -22 118 -10 53 -21 99 -24 102 -6 3
-57 -249 -86 -424 -3 -19 -7 -37 -9 -40 -2 -3 -7 -28 -10 -56 -4 -27 -11 -68
-16 -90 -5 -22 -12 -56 -15 -75 -3 -19 -22 -123 -41 -230 -20 -107 -38 -206
-40 -220 -3 -14 -7 -32 -9 -40 -2 -8 -7 -37 -11 -65 -3 -27 -8 -52 -9 -55 -2
-3 -6 -24 -9 -46 -4 -22 -9 -51 -12 -64 -3 -14 -7 -34 -8 -45 -3 -17 -9 -52
-32 -170 -2 -11 -35 -191 -73 -400 -39 -209 -72 -390 -75 -401 -2 -12 -7 -39
-10 -60 -4 -22 -11 -61 -16 -89 -8 -40 -63 -340 -75 -405 -15 -89 -13 -85 -49
-85 -19 0 -37 3 -41 6 -3 4 10 92 29 195 19 104 38 205 41 224 3 19 8 42 10
50 2 8 6 33 9 55 4 22 8 51 11 65 11 54 17 83 60 320 25 135 47 256 50 270 3
14 8 39 10 55 3 17 17 86 30 155 25 132 31 162 40 224 4 21 9 48 11 60 24 124
37 194 99 531 3 17 17 91 30 165 14 74 34 182 45 240 11 58 23 119 26 135 5
34 34 192 39 215 2 8 7 36 11 62 l7 48 85 -3 86 -2 12 -60z m1409 53 c-5 -18
-158 -652 -180 -748 -1 -8 -24 -103 -50 -210 -48 -200 -52 -217 -59 -248 -7
-31 -87 -363 -128 -532 -22 -91 -42 -176 -44 -190 -3 -14 -18 -77 -34 -140
-16 -63 -31 -126 -34 -140 -6 -34 -177 -746 -196 -820 -10 -36 -19 -40 -74
-31 -4 0 -5 13 -1 29 4 15 9 36 11 46 5 29 34 151 56 240 10 43 23 97 27 120
7 35 53 228 146 621 24 100 214 914 220 944 2 9 27 115 55 236 29 121 53 227
55 235 2 8 24 103 50 210 25 107 47 200 49 205 1 6 10 49 21 98 l20 87 47 0
c33 0 46 -4 43 -12z"/>
</g>
</svg>
