<svg width="38" height="25" viewBox="0 0 38 25" xmlns="http://www.w3.org/2000/svg">
<path d="M34.2298 24.0401C33.7386 24.2238 33.2009 24.3276 32.6331 24.3276H4.66174C4.09381 24.3276 3.5562 24.2238 3.065 24.0401L14.1683 13.0118L17.5736 15.6577L17.5745 15.6584C17.8891 15.9017 18.2724 16.0173 18.6474 16.0173C19.0224 16.0173 19.4056 15.9017 19.7202 15.6584L19.7212 15.6577L23.1256 13.0119L34.2298 24.0401ZM36.7948 20.6895C36.7948 21.0909 36.7123 21.4777 36.5643 21.844L25.6768 11.0315L36.434 2.67767C36.6655 3.12854 36.7948 3.62115 36.7948 4.13811V20.6895ZM32.6331 0.5C33.0567 0.5 33.4633 0.560684 33.8488 0.669784L18.6475 12.4758L3.44699 0.669383C3.83149 0.560577 4.23794 0.5 4.66182 0.5H32.6331ZM0.5 4.13811C0.5 3.62114 0.62942 3.12851 0.86096 2.67758L11.6169 11.0296L0.730272 21.8445C0.582246 21.4783 0.5 21.0914 0.5 20.6896V4.13811Z" stroke="white"/>
</svg>
