<svg version="1.1" xmlns="http://www.w3.org/2000/svg" x="0" y="0" viewBox="0 0 36 36" xml:space="preserve"><path d="M35.3 28.4l-.2-.5c-.4-1.2-1.8-2.5-3-2.8l-4.6-1.3c-1.2-.3-3 .1-3.9 1L22 26.5C15.9 24.8 11.2 20.1 9.5 14l1.7-1.7c.9-.9 1.4-2.7 1-3.9L11 3.8c-.3-1.2-1.6-2.6-2.8-3L7.6.7c-1.2-.4-3 0-3.9.9L1.2 4.1C.8 4.5.5 5.8.5 5.8c-.1 7.9 3 15.5 8.6 21.1 5.6 5.6 13.2 8.7 21 8.6 0 0 1.3-.3 1.8-.7l2.5-2.5c.9-.9 1.4-2.7.9-3.9zM33.1 16.9c0-7.7-6.2-14-14-14M29.8 17.6c0-6.3-5.1-11.4-11.4-11.4M26.7 18.4c0-4.8-3.9-8.7-8.7-8.7"/></svg>
